<svg xmlns="http://www.w3.org/2000/svg" xmlns:xlink="http://www.w3.org/1999/xlink" width="1500" zoomAndPan="magnify" viewBox="0 0 1125 374.999991" height="500" preserveAspectRatio="xMidYMid meet" version="1.0"><defs><g/><clipPath id="497631abe7"><path d="M 1058.3125 255.511719 L 1109.742188 255.511719 L 1109.742188 306.941406 L 1058.3125 306.941406 Z M 1058.3125 255.511719 " clip-rule="nonzero"/></clipPath><clipPath id="578b41e7c9"><path d="M 0.3125 0.511719 L 51.742188 0.511719 L 51.742188 51.941406 L 0.3125 51.941406 Z M 0.3125 0.511719 " clip-rule="nonzero"/></clipPath><clipPath id="dabc27d7cf"><rect x="0" width="52" y="0" height="52"/></clipPath><clipPath id="f634f2bee7"><rect x="0" width="1050" y="0" height="351"/></clipPath></defs><g clip-path="url(#497631abe7)"><g transform="matrix(1, 0, 0, 1, 1058, 255)"><g clip-path="url(#dabc27d7cf)"><g clip-path="url(#578b41e7c9)"><path fill="#2563eb" d="M 0.3125 0.511719 L 51.742188 0.511719 L 51.742188 51.941406 L 0.3125 51.941406 Z M 0.3125 0.511719 " fill-opacity="1" fill-rule="nonzero"/></g></g></g></g><g transform="matrix(1, 0, 0, 1, 15, 5)"><g clip-path="url(#f634f2bee7)"><g fill="#1a1a1a" fill-opacity="1"><g transform="translate(0.258588, 269.964207)"><g><path d="M 83.109375 0 L 83.109375 -85.625 L 6.3125 -208.8125 L 36.71875 -208.8125 L 78.203125 -141.40625 C 82.773438 -134.019531 86.90625 -126.894531 90.59375 -120.03125 C 94.289062 -113.164062 98.054688 -104.921875 101.890625 -95.296875 L 91.234375 -95.296875 C 95.066406 -105.109375 98.828125 -113.46875 102.515625 -120.375 C 106.203125 -127.289062 110.195312 -134.300781 114.5 -141.40625 L 155.84375 -208.8125 L 186.25 -208.8125 L 109.453125 -85.625 L 109.453125 0 Z M 83.109375 0 "/></g></g></g><g fill="#1a1a1a" fill-opacity="1"><g transform="translate(169.396923, 269.964207)"><g><path d="M 84.359375 3.359375 C 70.253906 3.359375 57.898438 0.0195312 47.296875 -6.65625 C 36.691406 -13.332031 28.421875 -22.695312 22.484375 -34.75 C 16.554688 -46.800781 13.59375 -60.722656 13.59375 -76.515625 C 13.59375 -92.585938 16.554688 -106.671875 22.484375 -118.765625 C 28.421875 -130.867188 36.691406 -140.257812 47.296875 -146.9375 C 57.898438 -153.625 70.253906 -156.96875 84.359375 -156.96875 C 98.472656 -156.96875 110.851562 -153.625 121.5 -146.9375 C 132.15625 -140.257812 140.445312 -130.867188 146.375 -118.765625 C 152.3125 -106.671875 155.28125 -92.585938 155.28125 -76.515625 C 155.28125 -60.722656 152.3125 -46.800781 146.375 -34.75 C 140.445312 -22.695312 132.15625 -13.332031 121.5 -6.65625 C 110.851562 0.0195312 98.472656 3.359375 84.359375 3.359375 Z M 84.359375 -18.921875 C 94.640625 -18.921875 103.164062 -21.535156 109.9375 -26.765625 C 116.71875 -31.992188 121.765625 -38.976562 125.078125 -47.71875 C 128.390625 -56.457031 130.046875 -66.054688 130.046875 -76.515625 C 130.046875 -87.078125 128.390625 -96.769531 125.078125 -105.59375 C 121.765625 -114.425781 116.71875 -121.476562 109.9375 -126.75 C 103.164062 -132.03125 94.640625 -134.671875 84.359375 -134.671875 C 74.179688 -134.671875 65.726562 -132.03125 59 -126.75 C 52.269531 -121.476562 47.222656 -114.453125 43.859375 -105.671875 C 40.492188 -96.890625 38.8125 -87.171875 38.8125 -76.515625 C 38.8125 -66.054688 40.492188 -56.457031 43.859375 -47.71875 C 47.222656 -38.976562 52.242188 -31.992188 58.921875 -26.765625 C 65.609375 -21.535156 74.085938 -18.921875 84.359375 -18.921875 Z M 84.359375 -18.921875 "/></g></g></g><g fill="#1a1a1a" fill-opacity="1"><g transform="translate(338.257048, 269.964207)"><g><path d="M 74.5625 2.109375 C 64.09375 2.109375 54.835938 -0.0625 46.796875 -4.40625 C 38.765625 -8.757812 32.484375 -15.300781 27.953125 -24.03125 C 23.421875 -32.769531 21.15625 -43.726562 21.15625 -56.90625 L 21.15625 -154.71875 L 46.109375 -154.71875 L 46.109375 -59 C 46.109375 -46.757812 49.257812 -37.253906 55.5625 -30.484375 C 61.875 -23.710938 70.492188 -20.328125 81.421875 -20.328125 C 88.804688 -20.328125 95.460938 -21.9375 101.390625 -25.15625 C 107.328125 -28.375 112.023438 -33.113281 115.484375 -39.375 C 118.941406 -45.632812 120.671875 -53.34375 120.671875 -62.5 L 120.671875 -154.71875 L 145.75 -154.71875 L 145.75 0 L 121.640625 0 L 121.640625 -37.5625 L 125.703125 -37.5625 C 120.847656 -23.164062 113.984375 -12.953125 105.109375 -6.921875 C 96.234375 -0.898438 86.050781 2.109375 74.5625 2.109375 Z M 74.5625 2.109375 "/></g></g></g><g fill="#1a1a1a" fill-opacity="1"><g transform="translate(505.155313, 269.964207)"><g><path d="M 21.15625 0 L 21.15625 -154.71875 L 45.125 -154.71875 L 45.125 -130.890625 L 46.53125 -130.890625 C 49.425781 -138.742188 54.421875 -145.050781 61.515625 -149.8125 C 68.617188 -154.582031 76.796875 -156.96875 86.046875 -156.96875 C 88.003906 -156.96875 90.195312 -156.921875 92.625 -156.828125 C 95.0625 -156.734375 96.929688 -156.640625 98.234375 -156.546875 L 98.234375 -131.453125 C 97.492188 -131.640625 95.648438 -131.921875 92.703125 -132.296875 C 89.765625 -132.671875 86.613281 -132.859375 83.25 -132.859375 C 76.238281 -132.859375 69.90625 -131.363281 64.25 -128.375 C 58.601562 -125.382812 54.164062 -121.175781 50.9375 -115.75 C 47.71875 -110.332031 46.109375 -103.9375 46.109375 -96.5625 L 46.109375 0 Z M 21.15625 0 "/></g></g></g><g fill="#1a1a1a" fill-opacity="1"><g transform="translate(609.774867, 269.964207)"><g><path d="M 18.078125 0 L 18.078125 -208.8125 L 60.96875 -208.8125 L 60.96875 -124.59375 L 151.5 -124.59375 L 151.5 -208.8125 L 194.375 -208.8125 L 194.375 0 L 151.5 0 L 151.5 -88.71875 L 60.96875 -88.71875 L 60.96875 0 Z M 18.078125 0 "/></g></g></g><g fill="#1a1a1a" fill-opacity="1"><g transform="translate(822.216188, 269.964207)"><g><path d="M 95.859375 -71.75 L 132.4375 -71.75 L 151.78125 -46.953125 L 169.015625 -26.765625 L 204.046875 17.375 L 164.25 17.375 L 140.5625 -12.328125 L 128.515625 -28.875 Z M 109.875 2.9375 C 91.375 2.9375 74.742188 -1.3125 59.984375 -9.8125 C 45.222656 -18.3125 33.566406 -30.550781 25.015625 -46.53125 C 16.460938 -62.507812 12.1875 -81.753906 12.1875 -104.265625 C 12.1875 -126.878906 16.460938 -146.195312 25.015625 -162.21875 C 33.566406 -178.238281 45.222656 -190.5 59.984375 -199 C 74.742188 -207.507812 91.375 -211.765625 109.875 -211.765625 C 128.375 -211.765625 144.976562 -207.507812 159.6875 -199 C 174.40625 -190.5 186.035156 -178.238281 194.578125 -162.21875 C 203.128906 -146.195312 207.40625 -126.878906 207.40625 -104.265625 C 207.40625 -81.753906 203.128906 -62.484375 194.578125 -46.453125 C 186.035156 -30.429688 174.40625 -18.191406 159.6875 -9.734375 C 144.976562 -1.285156 128.375 2.9375 109.875 2.9375 Z M 109.875 -35.03125 C 120.707031 -35.03125 130.1875 -37.691406 138.3125 -43.015625 C 146.445312 -48.347656 152.78125 -56.175781 157.3125 -66.5 C 161.84375 -76.820312 164.109375 -89.410156 164.109375 -104.265625 C 164.109375 -119.210938 161.84375 -131.867188 157.3125 -142.234375 C 152.78125 -152.609375 146.445312 -160.457031 138.3125 -165.78125 C 130.1875 -171.113281 120.707031 -173.78125 109.875 -173.78125 C 99.125 -173.78125 89.660156 -171.09375 81.484375 -165.71875 C 73.316406 -160.34375 66.96875 -152.492188 62.4375 -142.171875 C 57.90625 -131.847656 55.640625 -119.210938 55.640625 -104.265625 C 55.640625 -89.410156 57.90625 -76.84375 62.4375 -66.5625 C 66.96875 -56.289062 73.316406 -48.46875 81.484375 -43.09375 C 89.660156 -37.71875 99.125 -35.03125 109.875 -35.03125 Z M 109.875 -35.03125 "/></g></g></g></g></g></svg>